<mxfile host="www.draw.io" modified="2020-02-18T02:49:26.182Z" agent="Mozilla/5.0 (Windows NT 10.0; Win64; x64) AppleWebKit/537.36 (KHTML, like Gecko) Chrome/80.0.3987.106 Safari/537.36" etag="qboNEW9ceNNhB0gpb7lg" version="12.7.1" type="github">
  <diagram id="GNU3i8hCxYjH3E0Nk9u4" name="Page-1">
    <mxGraphModel dx="2702" dy="916" grid="1" gridSize="10" guides="1" tooltips="1" connect="1" arrows="1" fold="1" page="1" pageScale="1" pageWidth="850" pageHeight="1100" math="0" shadow="0">
      <root>
        <mxCell id="0" />
        <mxCell id="1" parent="0" />
        <mxCell id="FXCXVvDxTQtwc45PbP1s-149" value="本番環境" style="swimlane;fontStyle=0;horizontal=1;collapsible=0;startSize=28;swimlaneLine=0;swimlaneFillColor=none;fillColor=none;rounded=0;whiteSpace=wrap;html=1;absoluteArcSize=1;arcSize=12;strokeColor=#2A8838;verticalAlign=top;align=left;spacingLeft=30;spacingTop=1;dashed=0;strokeWidth=1;" parent="1" vertex="1">
          <mxGeometry x="330" y="310" width="710" height="281.5" as="geometry" />
        </mxCell>
        <mxCell id="mle7wP0IT92qCYiC621e-50" value="EC2" style="outlineConnect=0;dashed=0;verticalLabelPosition=bottom;verticalAlign=top;align=center;html=1;shape=mxgraph.aws3.instance;fillColor=#F58534;gradientColor=none;" parent="FXCXVvDxTQtwc45PbP1s-149" vertex="1">
          <mxGeometry x="90" y="170" width="60" height="63" as="geometry" />
        </mxCell>
        <mxCell id="mle7wP0IT92qCYiC621e-60" value="" style="strokeWidth=2;html=1;shape=mxgraph.flowchart.annotation_2;align=left;labelPosition=right;pointerEvents=1;" parent="FXCXVvDxTQtwc45PbP1s-149" vertex="1">
          <mxGeometry x="-10" y="90" width="100" height="120" as="geometry" />
        </mxCell>
        <mxCell id="mle7wP0IT92qCYiC621e-44" value="" style="outlineConnect=0;dashed=0;verticalLabelPosition=bottom;verticalAlign=top;align=center;html=1;shape=mxgraph.aws3.rds_db_instance;fillColor=#2E73B8;gradientColor=none;" parent="FXCXVvDxTQtwc45PbP1s-149" vertex="1">
          <mxGeometry x="370" y="50" width="49.5" height="66" as="geometry" />
        </mxCell>
        <mxCell id="mle7wP0IT92qCYiC621e-46" value="" style="outlineConnect=0;dashed=0;verticalLabelPosition=bottom;verticalAlign=top;align=center;html=1;shape=mxgraph.aws3.rds_db_instance_read_replica;fillColor=#2E73B8;gradientColor=none;" parent="FXCXVvDxTQtwc45PbP1s-149" vertex="1">
          <mxGeometry x="370" y="180" width="49.5" height="66" as="geometry" />
        </mxCell>
        <mxCell id="mle7wP0IT92qCYiC621e-69" value="&lt;font style=&quot;font-size: 24px&quot;&gt;RDS&lt;br&gt;&amp;nbsp;Master my SQL&lt;/font&gt;" style="text;html=1;align=center;verticalAlign=middle;resizable=0;points=[];autosize=1;" parent="FXCXVvDxTQtwc45PbP1s-149" vertex="1">
          <mxGeometry x="480" y="63" width="190" height="40" as="geometry" />
        </mxCell>
        <mxCell id="mle7wP0IT92qCYiC621e-73" value="&lt;font style=&quot;font-size: 24px&quot;&gt;RDS&lt;br&gt;&amp;nbsp;Replica My SQL&lt;/font&gt;" style="text;html=1;align=center;verticalAlign=middle;resizable=0;points=[];autosize=1;" parent="FXCXVvDxTQtwc45PbP1s-149" vertex="1">
          <mxGeometry x="475" y="193" width="200" height="40" as="geometry" />
        </mxCell>
        <mxCell id="FXCXVvDxTQtwc45PbP1s-170" value="AWS" style="swimlane;fontStyle=0;horizontal=1;collapsible=0;startSize=28;swimlaneLine=0;swimlaneFillColor=none;fillColor=none;rounded=0;whiteSpace=wrap;html=1;absoluteArcSize=1;arcSize=12;strokeColor=#417CB9;verticalAlign=top;align=left;spacingLeft=30;spacingTop=1;dashed=0;strokeWidth=1;" parent="1" vertex="1">
          <mxGeometry x="-110" y="70" width="1270" height="1120" as="geometry" />
        </mxCell>
        <mxCell id="FXCXVvDxTQtwc45PbP1s-171" value="" style="aspect=fixed;perimeter=ellipsePerimeter;html=1;align=center;shadow=0;dashed=0;fontColor=#4277BB;labelBackgroundColor=#ffffff;fontSize=12;spacingTop=3;image;image=img/lib/ibm/vpc/CloudTag.svg;part=1;" parent="FXCXVvDxTQtwc45PbP1s-170" vertex="1">
          <mxGeometry width="30" height="30" as="geometry" />
        </mxCell>
        <mxCell id="FXCXVvDxTQtwc45PbP1s-161" value="VPC" style="swimlane;fontStyle=0;horizontal=1;collapsible=0;startSize=28;swimlaneLine=0;swimlaneFillColor=none;fillColor=none;rounded=0;whiteSpace=wrap;html=1;absoluteArcSize=1;arcSize=12;strokeColor=#417CB9;verticalAlign=top;align=left;spacingLeft=30;spacingTop=1;dashed=0;strokeWidth=1;" parent="FXCXVvDxTQtwc45PbP1s-170" vertex="1">
          <mxGeometry x="280" y="110" width="930" height="818" as="geometry" />
        </mxCell>
        <mxCell id="FXCXVvDxTQtwc45PbP1s-162" value="" style="aspect=fixed;perimeter=ellipsePerimeter;html=1;align=center;shadow=0;dashed=0;fontColor=#4277BB;labelBackgroundColor=#ffffff;fontSize=12;spacingTop=3;image;image=img/lib/ibm/vpc/VPCTag.svg;part=1;" parent="FXCXVvDxTQtwc45PbP1s-161" vertex="1">
          <mxGeometry width="30" height="30" as="geometry" />
        </mxCell>
        <mxCell id="FXCXVvDxTQtwc45PbP1s-96" value="ELB" style="aspect=fixed;perimeter=ellipsePerimeter;html=1;align=center;shadow=0;dashed=0;fontColor=#4277BB;labelBackgroundColor=#ffffff;fontSize=12;spacingTop=3;image;image=img/lib/ibm/vpc/PublicGateway.svg;" parent="FXCXVvDxTQtwc45PbP1s-161" vertex="1">
          <mxGeometry x="60" y="240" width="90" height="90" as="geometry" />
        </mxCell>
        <mxCell id="FXCXVvDxTQtwc45PbP1s-147" value="ステージング環境" style="swimlane;fontStyle=0;horizontal=1;collapsible=0;startSize=28;swimlaneLine=0;swimlaneFillColor=none;fillColor=none;rounded=0;whiteSpace=wrap;html=1;absoluteArcSize=1;arcSize=12;strokeColor=#2A8838;verticalAlign=top;align=left;spacingLeft=30;spacingTop=1;dashed=0;strokeWidth=1;" parent="FXCXVvDxTQtwc45PbP1s-161" vertex="1">
          <mxGeometry x="160" y="520" width="720" height="280" as="geometry" />
        </mxCell>
        <mxCell id="mle7wP0IT92qCYiC621e-52" value="EC2" style="outlineConnect=0;dashed=0;verticalLabelPosition=bottom;verticalAlign=top;align=center;html=1;shape=mxgraph.aws3.instance;fillColor=#F58534;gradientColor=none;" parent="FXCXVvDxTQtwc45PbP1s-147" vertex="1">
          <mxGeometry x="90" y="180" width="60" height="63" as="geometry" />
        </mxCell>
        <mxCell id="mle7wP0IT92qCYiC621e-51" value="EC2" style="outlineConnect=0;dashed=0;verticalLabelPosition=bottom;verticalAlign=top;align=center;html=1;shape=mxgraph.aws3.instance;fillColor=#F58534;gradientColor=none;" parent="FXCXVvDxTQtwc45PbP1s-147" vertex="1">
          <mxGeometry x="90" y="60" width="60" height="63" as="geometry" />
        </mxCell>
        <mxCell id="mle7wP0IT92qCYiC621e-62" value="" style="strokeWidth=2;html=1;shape=mxgraph.flowchart.annotation_2;align=left;labelPosition=right;pointerEvents=1;" parent="FXCXVvDxTQtwc45PbP1s-147" vertex="1">
          <mxGeometry x="-10" y="100" width="100" height="120" as="geometry" />
        </mxCell>
        <mxCell id="mle7wP0IT92qCYiC621e-45" value="" style="outlineConnect=0;dashed=0;verticalLabelPosition=bottom;verticalAlign=top;align=center;html=1;shape=mxgraph.aws3.rds_db_instance;fillColor=#2E73B8;gradientColor=none;" parent="FXCXVvDxTQtwc45PbP1s-147" vertex="1">
          <mxGeometry x="370" y="58.5" width="49.5" height="66" as="geometry" />
        </mxCell>
        <mxCell id="mle7wP0IT92qCYiC621e-47" value="" style="outlineConnect=0;dashed=0;verticalLabelPosition=bottom;verticalAlign=top;align=center;html=1;shape=mxgraph.aws3.rds_db_instance_read_replica;fillColor=#2E73B8;gradientColor=none;" parent="FXCXVvDxTQtwc45PbP1s-147" vertex="1">
          <mxGeometry x="370" y="177" width="49.5" height="66" as="geometry" />
        </mxCell>
        <mxCell id="mle7wP0IT92qCYiC621e-71" value="&lt;font style=&quot;font-size: 24px&quot;&gt;RDS&lt;br&gt;&amp;nbsp;Master my SQL&lt;/font&gt;" style="text;html=1;align=center;verticalAlign=middle;resizable=0;points=[];autosize=1;" parent="FXCXVvDxTQtwc45PbP1s-147" vertex="1">
          <mxGeometry x="490" y="70" width="190" height="40" as="geometry" />
        </mxCell>
        <mxCell id="mle7wP0IT92qCYiC621e-72" value="&lt;font style=&quot;font-size: 24px&quot;&gt;RDS&lt;br&gt;&amp;nbsp;Replica My SQL&lt;/font&gt;" style="text;html=1;align=center;verticalAlign=middle;resizable=0;points=[];autosize=1;" parent="FXCXVvDxTQtwc45PbP1s-147" vertex="1">
          <mxGeometry x="490" y="191.5" width="200" height="40" as="geometry" />
        </mxCell>
        <mxCell id="mle7wP0IT92qCYiC621e-11" value="ELB" style="aspect=fixed;perimeter=ellipsePerimeter;html=1;align=center;shadow=0;dashed=0;fontColor=#4277BB;labelBackgroundColor=#ffffff;fontSize=12;spacingTop=3;image;image=img/lib/ibm/vpc/PublicGateway.svg;" parent="FXCXVvDxTQtwc45PbP1s-161" vertex="1">
          <mxGeometry x="60" y="630" width="90" height="90" as="geometry" />
        </mxCell>
        <mxCell id="mle7wP0IT92qCYiC621e-48" value="EC2" style="outlineConnect=0;dashed=0;verticalLabelPosition=bottom;verticalAlign=top;align=center;html=1;shape=mxgraph.aws3.instance;fillColor=#F58534;gradientColor=none;" parent="FXCXVvDxTQtwc45PbP1s-161" vertex="1">
          <mxGeometry x="250" y="180" width="60" height="63" as="geometry" />
        </mxCell>
        <mxCell id="mle7wP0IT92qCYiC621e-57" value="" style="endArrow=none;html=1;entryX=0;entryY=0.5;entryDx=0;entryDy=0;" parent="FXCXVvDxTQtwc45PbP1s-161" target="FXCXVvDxTQtwc45PbP1s-96" edge="1">
          <mxGeometry width="50" height="50" relative="1" as="geometry">
            <mxPoint x="-40" y="487" as="sourcePoint" />
            <mxPoint x="10" y="437" as="targetPoint" />
          </mxGeometry>
        </mxCell>
        <mxCell id="mle7wP0IT92qCYiC621e-58" value="" style="endArrow=none;html=1;entryX=0;entryY=0.5;entryDx=0;entryDy=0;" parent="FXCXVvDxTQtwc45PbP1s-161" target="mle7wP0IT92qCYiC621e-11" edge="1">
          <mxGeometry width="50" height="50" relative="1" as="geometry">
            <mxPoint x="-40" y="487" as="sourcePoint" />
            <mxPoint x="10" y="437" as="targetPoint" />
          </mxGeometry>
        </mxCell>
        <mxCell id="DGDNv-w1i0frMR48nOAc-2" value="" style="outlineConnect=0;dashed=0;verticalLabelPosition=bottom;verticalAlign=top;align=center;html=1;shape=mxgraph.aws3.vpn_gateway;fillColor=#F58534;gradientColor=none;" vertex="1" parent="FXCXVvDxTQtwc45PbP1s-161">
          <mxGeometry x="140" y="110" width="38" height="40" as="geometry" />
        </mxCell>
        <mxCell id="mle7wP0IT92qCYiC621e-32" value="Cloundwatch" style="outlineConnect=0;dashed=0;verticalLabelPosition=bottom;verticalAlign=top;align=center;html=1;shape=mxgraph.aws3.cloudwatch;fillColor=#759C3E;gradientColor=none;" parent="FXCXVvDxTQtwc45PbP1s-170" vertex="1">
          <mxGeometry x="290" y="961.5" width="82.5" height="93" as="geometry" />
        </mxCell>
        <mxCell id="mle7wP0IT92qCYiC621e-33" value="Sendbird" style="outlineConnect=0;dashed=0;verticalLabelPosition=bottom;verticalAlign=top;align=center;html=1;shape=mxgraph.aws3.email;fillColor=#D9A741;gradientColor=none;" parent="FXCXVvDxTQtwc45PbP1s-170" vertex="1">
          <mxGeometry x="922" y="1001.5" width="81" height="61.5" as="geometry" />
        </mxCell>
        <mxCell id="mle7wP0IT92qCYiC621e-40" value="" style="shape=ext;rounded=1;html=1;whiteSpace=wrap;" parent="FXCXVvDxTQtwc45PbP1s-170" vertex="1">
          <mxGeometry x="40" y="370" width="200" height="450" as="geometry" />
        </mxCell>
        <mxCell id="mle7wP0IT92qCYiC621e-39" value="WAF" style="outlineConnect=0;dashed=0;verticalLabelPosition=bottom;verticalAlign=top;align=center;html=1;shape=mxgraph.aws3.waf;fillColor=#759C3E;gradientColor=none;" parent="FXCXVvDxTQtwc45PbP1s-170" vertex="1">
          <mxGeometry x="90.25" y="420" width="99.5" height="140" as="geometry" />
        </mxCell>
        <mxCell id="mle7wP0IT92qCYiC621e-37" value="Route 53" style="outlineConnect=0;dashed=0;verticalLabelPosition=bottom;verticalAlign=top;align=center;html=1;shape=mxgraph.aws3.route_53;fillColor=#F58536;gradientColor=none;" parent="FXCXVvDxTQtwc45PbP1s-170" vertex="1">
          <mxGeometry x="89.25" y="640" width="100.5" height="130" as="geometry" />
        </mxCell>
        <mxCell id="mle7wP0IT92qCYiC621e-41" value="S3" style="outlineConnect=0;dashed=0;verticalLabelPosition=bottom;verticalAlign=top;align=center;html=1;shape=mxgraph.aws3.bucket_with_objects;fillColor=#E05243;gradientColor=none;" parent="FXCXVvDxTQtwc45PbP1s-170" vertex="1">
          <mxGeometry x="90" y="980" width="70" height="74.5" as="geometry" />
        </mxCell>
        <mxCell id="mle7wP0IT92qCYiC621e-42" value="Lambda" style="outlineConnect=0;dashed=0;verticalLabelPosition=bottom;verticalAlign=top;align=center;html=1;shape=mxgraph.aws3.lambda;fillColor=#F58534;gradientColor=none;" parent="FXCXVvDxTQtwc45PbP1s-170" vertex="1">
          <mxGeometry x="490" y="970" width="76.5" height="93" as="geometry" />
        </mxCell>
        <mxCell id="mle7wP0IT92qCYiC621e-55" value="EFS" style="outlineConnect=0;dashed=0;verticalLabelPosition=bottom;verticalAlign=top;align=center;html=1;shape=mxgraph.aws3.efs;fillColor=#E05243;gradientColor=none;" parent="FXCXVvDxTQtwc45PbP1s-170" vertex="1">
          <mxGeometry x="721" y="970" width="76.5" height="93" as="geometry" />
        </mxCell>
        <mxCell id="mle7wP0IT92qCYiC621e-56" value="" style="endArrow=none;html=1;" parent="FXCXVvDxTQtwc45PbP1s-170" edge="1">
          <mxGeometry width="50" height="50" relative="1" as="geometry">
            <mxPoint x="-70" y="593" as="sourcePoint" />
            <mxPoint x="40" y="593" as="targetPoint" />
          </mxGeometry>
        </mxCell>
        <mxCell id="FXCXVvDxTQtwc45PbP1s-94" value="Internet" style="aspect=fixed;perimeter=ellipsePerimeter;html=1;align=center;shadow=0;dashed=0;fontColor=#4277BB;labelBackgroundColor=#ffffff;fontSize=12;spacingTop=3;image;image=img/lib/ibm/vpc/Internet.svg;" parent="1" vertex="1">
          <mxGeometry x="-310" y="603" width="130" height="130" as="geometry" />
        </mxCell>
        <mxCell id="mle7wP0IT92qCYiC621e-4" value="&lt;span style=&quot;color: rgba(0 , 0 , 0 , 0) ; font-family: monospace ; font-size: 0px&quot;&gt;%3CmxGraphModel%3E%3Croot%3E%3CmxCell%20id%3D%220%22%2F%3E%3CmxCell%20id%3D%221%22%20parent%3D%220%22%2F%3E%3CmxCell%20id%3D%222%22%20value%3D%22ELB%22%20style%3D%22aspect%3Dfixed%3Bperimeter%3DellipsePerimeter%3Bhtml%3D1%3Balign%3Dcenter%3Bshadow%3D0%3Bdashed%3D0%3BfontColor%3D%234277BB%3BlabelBackgroundColor%3D%23ffffff%3BfontSize%3D12%3BspacingTop%3D3%3Bimage%3Bimage%3Dimg%2Flib%2Fibm%2Fvpc%2FPublicGateway.svg%3B%22%20vertex%3D%221%22%20parent%3D%221%22%3E%3CmxGeometry%20x%3D%22288.5%22%20y%3D%22379.5%22%20width%3D%2260%22%20height%3D%2260%22%20as%3D%22geometry%22%2F%3E%3C%2FmxCell%3E%3C%2Froot%3E%3C%2FmxGraphModel%3E&lt;/span&gt;" style="text;html=1;align=center;verticalAlign=middle;resizable=0;points=[];autosize=1;" parent="1" vertex="1">
          <mxGeometry x="303" y="564" width="20" height="20" as="geometry" />
        </mxCell>
        <mxCell id="mle7wP0IT92qCYiC621e-10" value="&lt;span style=&quot;color: rgba(0 , 0 , 0 , 0) ; font-family: monospace ; font-size: 0px&quot;&gt;%3CmxGraphModel%3E%3Croot%3E%3CmxCell%20id%3D%220%22%2F%3E%3CmxCell%20id%3D%221%22%20parent%3D%220%22%2F%3E%3CmxCell%20id%3D%222%22%20value%3D%22ELB%22%20style%3D%22aspect%3Dfixed%3Bperimeter%3DellipsePerimeter%3Bhtml%3D1%3Balign%3Dcenter%3Bshadow%3D0%3Bdashed%3D0%3BfontColor%3D%234277BB%3BlabelBackgroundColor%3D%23ffffff%3BfontSize%3D12%3BspacingTop%3D3%3Bimage%3Bimage%3Dimg%2Flib%2Fibm%2Fvpc%2FPublicGateway.svg%3B%22%20vertex%3D%221%22%20parent%3D%221%22%3E%3CmxGeometry%20x%3D%22288.5%22%20y%3D%22379.5%22%20width%3D%2260%22%20height%3D%2260%22%20as%3D%22geometry%22%2F%3E%3C%2FmxCell%3E%3C%2Froot%3E%3C%2FmxGraphModel%3E&lt;/span&gt;" style="text;html=1;align=center;verticalAlign=middle;resizable=0;points=[];autosize=1;" parent="1" vertex="1">
          <mxGeometry x="134" y="989" width="20" height="20" as="geometry" />
        </mxCell>
        <mxCell id="DGDNv-w1i0frMR48nOAc-3" value="" style="outlineConnect=0;dashed=0;verticalLabelPosition=bottom;verticalAlign=top;align=center;html=1;shape=mxgraph.aws3.vpn_gateway;fillColor=#F58534;gradientColor=none;" vertex="1" parent="1">
          <mxGeometry x="320" y="680" width="38" height="40" as="geometry" />
        </mxCell>
        <mxCell id="FXCXVvDxTQtwc45PbP1s-115" value="Icons" style="" parent="0" />
      </root>
    </mxGraphModel>
  </diagram>
</mxfile>
